# xmcd
#
# Track frame offsets:
#	150
#	12393
#	25358
#	39785
#	50919
#	62633
#	74536
#	87292
#	99537
#	112071
#	124409
#	137694
#	150401
#	162426
#	176670
#	189767
#
# Disc length: 2728
#
# Revision: 1
# Processed by: cddbd v1.5.1PL0 Copyright (c) Steve Scherf et al.
# Submitted via: gmmusic 1.1.10
# Normalized: r0:DSETVAR1
#
DISCID=db0aa610
DTITLE=Various Artist - The Early Years if Blues 1926-1948 [CD 1)
DYEAR=1900
DGENRE=Blues
TTITLE0=Muddy Waters - I Can't Be Satisfied
TTITLE1=Leadbelly - Take This Hammer
TTITLE2=Helen Humes and The Pete Brown B and - Unlucky Blues
TTITLE3=Big Joe Turner and Art Tatum B and - Corrinne Corrina
TTITLE4=Brownie Mc Ghee - Million Lonesome Woman
TTITLE5=Bukka White - Parchman Farm Blues
TTITLE6=Alberta Hunter - Fine and Mellow
TTITLE7=Blind Boy Fuller and Sonny Terry - I Want Some of Your Pie
TTITLE8=Lannie Johnson - Flood Water Blues
TTITLE9=Walter Coleman - I'm Going to Cincinnati
TTITLE10=Bumble Bee Slim - Ramblin' With That Woman
TTITLE11=Cripple Clarence Lofton and Broonzy Big Bill - Brown Skin Girl's
TTITLE12=Memphis Jug B and - Gator Wobble
TTITLE13=Kansas Joe Mc Coy and Memphis Minnie - That Will be Alright
TTITLE14=Bertha 'Chippie' Hill and Louis Armstrong - Pratt City Blues
TTITLE15=Henry Williams and Eddy Anthony - Georgia Crawl
EXTD=
EXTT0=
EXTT1=
EXTT2=
EXTT3=
EXTT4=
EXTT5=
EXTT6=
EXTT7=
EXTT8=
EXTT9=
EXTT10=
EXTT11=
EXTT12=
EXTT13=
EXTT14=
EXTT15=
PLAYORDER=
